<?xml version="1.0" encoding="UTF-8"?>
<svg width="34px" height="34px" viewBox="0 0 34 34" version="1.1" xmlns="http://www.w3.org/2000/svg" xmlns:xlink="http://www.w3.org/1999/xlink">
    <!-- Generator: sketchtool 59 (101010) - https://sketch.com -->
    <title>D6B90FFD-1517-40F0-8D3C-7C099A4336C1</title>
    <desc>Created with sketchtool.</desc>
    <g id="Page-1" stroke="none" stroke-width="1" fill="none" fill-rule="evenodd">
        <g id="1920_footer" transform="translate(-1085.000000, -418.000000)">
            <g id="cards_pay" transform="translate(964.000000, 414.000000)">
                <g id="elo" transform="translate(118.000000, 1.000000)">
                    <g transform="translate(4.000000, 4.000000)">
                        <path d="M16,0 C24.8365317,0 32,7.16346827 32,16 C32,24.8366235 24.8365317,32 16,32 C7.16346827,32 0,24.8366235 0,16 C0,7.16346827 7.16346827,0 16,0" id="Fill-1" fill="#0F0F12"></path>
                        <path d="M16,0 C24.8365317,0 32,7.16346827 32,16 C32,24.8366235 24.8365317,32 16,32 C7.16346827,32 0,24.8366235 0,16 C0,7.16346827 7.16346827,0 16,0 Z" id="Stroke-2" stroke="#1B1A19" stroke-width="0.6048"></path>
                        <path d="M11.2236756,15.1472815 L6.36112788,17.510792 C6.35358764,17.416313 6.34940871,17.3207069 6.34940871,17.2239736 C6.34940871,15.4890247 7.59627404,14.0826002 9.13439258,14.0826002 C9.96654459,14.0826002 10.7133919,14.4945366 11.2236756,15.1472815 Z M9.13439258,11.7333333 C11.4288973,11.7333333 13.3522041,13.5241293 13.8666667,15.9342644 L11.9047502,16.9019049 L11.904296,16.8972937 L9.89713803,17.8919868 L5.08219381,20.2666667 C4.56709535,19.395657 4.26666667,18.3494206 4.26666667,17.2239736 C4.26666667,14.1915277 6.44597832,11.7333333 9.13439258,11.7333333 L9.13439258,11.7333333 Z" id="Fill-4" fill="#FFFFFE"></path>
                        <path d="M12.8,20.853695 C10.9637304,22.6898006 8.5345138,22.8699929 6.4,21.504787 L7.60599408,19.5730897 C8.8206024,20.3379237 10.0407621,20.2138965 11.266569,19.2 L12.8,20.853695" id="Fill-5" fill="#FFFFFE"></path>
                        <path d="M14.9449291,18.9680834 L14.9333333,9.6 L16.5822503,9.6 L16.5822503,18.7151294 C16.5822503,18.8025908 16.5922999,18.879605 16.698895,18.9241678 L18.1333333,19.5246563 L17.487063,21.3333333 L15.8067087,20.5680918 C15.1695432,20.2778788 14.9460457,19.8573982 14.9449291,18.9680834" id="Fill-6" fill="#FFFFFE"></path>
                        <path d="M21.3333333,19.3332903 C20.6784632,18.7829145 20.2568382,17.9239544 20.2568382,16.9578703 C20.2568382,16.0990086 20.5903706,15.3248428 21.1243864,14.7767295 L19.9960185,12.8 C18.8617353,13.7713961 18.1333333,15.2722153 18.1333333,16.9578703 C18.1333333,18.7747499 18.9789495,20.3776763 20.2676677,21.3333333 L21.3333333,19.3332903" id="Fill-7" fill="#2191C3"></path>
                        <path d="M21.2861987,14.2193618 C21.6182995,14.1044181 21.9763024,14.0414068 22.3496203,14.0414068 C23.6953944,14.0414068 24.8429975,14.8557068 25.2912462,16 L27.7333333,15.8036461 C27.1438569,13.4679743 24.957912,11.7333333 22.3496203,11.7333333 C21.6126463,11.7333333 20.9099,11.8730067 20.2666667,12.1243595 L21.2861987,14.2193618" id="Fill-8" fill="#FAEC32"></path>
                        <path d="M25.6205712,17.0666667 C25.5504297,18.7145467 24.3381788,20.0265441 22.852793,20.0265441 C22.6198944,20.0265441 22.3939736,19.9937899 22.1779307,19.9331642 L21.3333333,22.1282015 C21.8117271,22.3036702 22.3221104,22.4 22.852793,22.4 C25.4837319,22.4 27.6278493,20.0654015 27.7333333,17.1413299 L25.6205712,17.0666667" id="Fill-9" fill="#D0362B"></path>
                    </g>
                </g>
            </g>
        </g>
    </g>
</svg>