<?xml version="1.0" encoding="UTF-8"?>
<svg width="34px" height="26px" viewBox="0 0 34 26" version="1.1" xmlns="http://www.w3.org/2000/svg" xmlns:xlink="http://www.w3.org/1999/xlink">
    <!-- Generator: sketchtool 59 (101010) - https://sketch.com -->
    <title>BB21675B-7057-4072-B72F-0B1834606692</title>
    <desc>Created with sketchtool.</desc>
    <g id="Page-1" stroke="none" stroke-width="1" fill="none" fill-rule="evenodd">
        <g id="1920_footer" transform="translate(-1197.000000, -422.000000)">
            <g id="cards_pay" transform="translate(964.000000, 414.000000)">
                <g id="master" transform="translate(230.000000, 1.000000)">
                    <path d="M8.44018248,32.8561151 L8.44018248,31.1294964 C8.46090141,30.8357396 8.35196809,30.5474271 8.14117343,30.3381128 C7.93037877,30.1287985 7.63810752,30.0187239 7.3389235,30.0359712 C6.94464764,30.0105749 6.56755295,30.1980328 6.35481973,30.5251798 C6.16086809,30.2077869 5.8057362,30.0200735 5.42929357,30.0359712 C5.10152767,30.0196912 4.7894977,30.1751696 4.6092071,30.4446043 L4.6092071,30.105036 L4,30.105036 L4,32.8561151 L4.61506486,32.8561151 L4.61506486,31.342446 C4.58857559,31.1519684 4.64999985,30.959815 4.7825755,30.8184229 C4.91515114,30.6770308 5.10503993,30.6011584 5.30042284,30.6115108 C5.70460831,30.6115108 5.90962993,30.8705036 5.90962993,31.3366906 L5.90962993,32.8676259 L6.52469479,32.8676259 L6.52469479,31.342446 C6.49929248,31.152185 6.56109234,30.9606542 6.69342218,30.8195242 C6.82575202,30.6783943 7.01497853,30.6022051 7.21005277,30.6115108 C7.62595377,30.6115108 7.82511763,30.8705036 7.82511763,31.3366906 L7.82511763,32.8676259 L8.44018248,32.8561151 Z M17.5402135,30.105036 L16.5385364,30.105036 L16.5385364,29.2705036 L15.9234716,29.2705036 L15.9234716,30.105036 L15.3669843,30.105036 L15.3669843,30.6517985 L15.9351871,30.6517985 L15.9351871,31.9179856 C15.9351871,32.5568345 16.1870708,32.9366985 16.9075753,32.9366985 C17.1767566,32.937579 17.4407217,32.8637634 17.6690842,32.723741 L17.4933514,32.2115108 C17.3299794,32.3072546 17.1445601,32.3607202 16.9544374,32.3669064 C16.6615494,32.3669064 16.5502519,32.1827338 16.5502519,31.9064748 L16.5502519,30.6517985 L17.5460712,30.6517985 L17.5402135,30.105036 Z M22.7360471,30.0359712 C22.4334695,30.027228 22.150266,30.1818139 21.9979692,30.4388489 L21.9979692,30.105036 L21.3946199,30.105036 L21.3946199,32.8561151 L22.003827,32.8561151 L22.003827,31.313669 C22.003827,30.8589928 22.2029909,30.6057554 22.589603,30.6057554 C22.7199043,30.6040042 22.849282,30.6274719 22.9703575,30.6748201 L23.1578058,30.0992806 C23.0186758,30.0503781 22.872095,30.0250774 22.7243315,30.0244604 L22.7360471,30.0359712 Z M14.8807902,30.323741 C14.5359512,30.1222955 14.1394759,30.0224117 13.7385269,30.0359712 C13.0297379,30.0359712 12.5669748,30.3697842 12.5669748,30.9165467 C12.5669748,31.3654676 12.9067249,31.6417266 13.5335053,31.7280575 L13.8263933,31.7683453 C14.1602856,31.8143885 14.3184452,31.9007194 14.3184452,32.0561151 C14.3184452,32.2690647 14.0958503,32.389928 13.6799493,32.389928 C13.3454133,32.3994423 13.0173496,32.2980805 12.7485654,32.1021582 L12.4556773,32.5683453 C12.8105445,32.8117958 13.2355859,32.9368782 13.6682338,32.9251798 C14.4766047,32.9251798 14.9452256,32.5510791 14.9452256,32.0273381 C14.9452256,31.5035971 14.5761866,31.2906475 13.9669795,31.2043165 L13.6740915,31.1640288 C13.4104923,31.1294964 13.1996129,31.0776978 13.1996129,30.8935252 C13.1996129,30.7093525 13.3987768,30.571223 13.7326691,30.571223 C14.0412781,30.5747453 14.3438081,30.6559918 14.6113332,30.8071942 L14.8807902,30.323741 Z M31.1975821,30.0359712 C30.8950046,30.027228 30.6118011,30.1818139 30.4595043,30.4388489 L30.4595043,30.105036 L29.856155,30.105036 L29.856155,32.8561151 L30.4653621,32.8561151 L30.4653621,31.313669 C30.4653621,30.8589928 30.6645259,30.6057554 31.0511381,30.6057554 C31.1814394,30.6040042 31.3108171,30.6274719 31.4318926,30.6748201 L31.6193409,30.0992806 C31.4802109,30.0503781 31.3336301,30.0250774 31.1858666,30.0244604 L31.1975821,30.0359712 Z M23.348183,31.4748201 C23.3335321,31.8657366 23.4872184,32.2446223 23.7715186,32.5184772 C24.0558189,32.7923322 24.4444107,32.9358013 24.841912,32.913669 C25.2076936,32.9319539 25.5671713,32.8149064 25.8494468,32.5856115 L25.5565588,32.1021582 C25.3459638,32.2599456 25.089163,32.3467413 24.8243387,32.3496403 C24.3573875,32.3125189 23.9976881,31.9293552 23.9976881,31.4690647 C23.9976881,31.0087743 24.3573875,30.6256105 24.8243387,30.5884892 C25.089163,30.5913881 25.3459638,30.6781838 25.5565588,30.8359712 L25.8494468,30.352518 C25.5671713,30.123223 25.2076936,30.0061756 24.841912,30.0244604 C24.4444107,30.0023282 24.0558189,30.1457972 23.7715186,30.4196522 C23.4872184,30.6935072 23.3335321,31.0723928 23.348183,31.4633093 L23.348183,31.4748201 Z M29.0536418,31.4748201 L29.0536418,30.105036 L28.4444347,30.105036 L28.4444347,30.4388489 C28.2345521,30.1735108 27.907564,30.0235829 27.5657706,30.0359712 C26.7569827,30.0359712 26.1013305,30.6801658 26.1013305,31.4748201 C26.1013305,32.2694744 26.7569827,32.913669 27.5657706,32.913669 C27.907564,32.9260573 28.2345521,32.7761294 28.4444347,32.5107913 L28.4444347,32.8446043 L29.0536418,32.8446043 L29.0536418,31.4748201 Z M26.7866885,31.4748201 C26.8137791,31.023214 27.2033047,30.6757146 27.6634167,30.6926827 C28.1235288,30.7096508 28.4854455,31.084862 28.4780043,31.5371927 C28.4705631,31.9895235 28.0964936,32.3530466 27.6360637,32.3553956 C27.4016183,32.3583103 27.1765881,32.2648857 27.0153058,32.097679 C26.8540235,31.9304722 26.7711477,31.7046804 26.7866885,31.4748201 L26.7866885,31.4748201 Z M19.435199,30.0359712 C18.626411,30.0470964 17.979938,30.7003097 17.991261,31.494964 C18.0025841,32.2896183 18.6674154,32.9247942 19.4762033,32.913669 C19.8975929,32.9349205 20.3119902,32.801595 20.6389688,32.5395683 L20.3460808,32.0964028 C20.1148052,32.2786413 19.8282846,32.3799052 19.531852,32.3841726 C19.1131295,32.419554 18.7418101,32.1210563 18.6941923,31.7107913 L20.7736973,31.7107913 C20.7736973,31.6359712 20.7736973,31.5611511 20.7736973,31.4805755 C20.7736973,30.6172662 20.2289256,30.0417266 19.4439856,30.0417266 L19.435199,30.0359712 Z M19.435199,30.571223 C19.6193093,30.5673664 19.7974341,30.6355481 19.9303669,30.7607608 C20.0632997,30.8859735 20.1401448,31.0579542 20.143988,31.2388489 L18.6795479,31.2388489 C18.7016107,30.8546254 19.0320322,30.5580971 19.4234835,30.571223 L19.435199,30.571223 Z M34.6975941,31.4805755 L34.6975941,29 L34.111818,29 L34.111818,30.4388489 C33.9019354,30.1735108 33.5749473,30.0235829 33.2331539,30.0359712 C32.424366,30.0359712 31.7687138,30.6801658 31.7687138,31.4748201 C31.7687138,32.2694744 32.424366,32.913669 33.2331539,32.913669 C33.5749473,32.9260573 33.9019354,32.7761294 34.111818,32.5107913 L34.111818,32.8446043 L34.6975941,32.8446043 L34.6975941,31.4805755 Z M35.7139155,32.4561151 C35.7519947,32.4556567 35.7897995,32.462499 35.825213,32.476259 C35.858849,32.489745 35.889638,32.5092617 35.9160083,32.5338129 C35.9417441,32.5586248 35.9625958,32.5878924 35.9775147,32.6201438 C36.0074951,32.6880711 36.0074951,32.7651662 35.9775147,32.8330935 C35.9625958,32.8653449 35.9417441,32.8946125 35.9160083,32.9194244 C35.889638,32.9439756 35.858849,32.9634923 35.825213,32.9769784 C35.7901491,32.9921799 35.7522411,33.000021 35.7139155,33 C35.6005824,32.9991606 35.4979143,32.934153 35.4503163,32.8330935 C35.4206831,32.7650959 35.4206831,32.6881415 35.4503163,32.6201438 C35.4652352,32.5878924 35.4860869,32.5586248 35.5118228,32.5338129 C35.5381931,32.5092617 35.568982,32.489745 35.6026181,32.476259 C35.6407667,32.4613491 35.6816796,32.4544861 35.7227022,32.4561151 L35.7139155,32.4561151 Z M35.7139155,32.942446 C35.7431485,32.9426205 35.7720905,32.9367371 35.798853,32.9251798 C35.8240521,32.9141259 35.8469055,32.8985056 35.8662173,32.8791366 C35.9421623,32.7977245 35.9421623,32.672779 35.8662173,32.5913669 C35.8469515,32.5719445 35.8240871,32.5563167 35.798853,32.5453237 C35.7720641,32.5338478 35.7431398,32.5279681 35.7139155,32.5280565 C35.6847164,32.5282091 35.6558411,32.5340789 35.628978,32.5453237 C35.6026633,32.5559252 35.5787659,32.5715784 35.5586849,32.5913669 C35.4827399,32.672779 35.4827399,32.7977245 35.5586849,32.8791366 C35.5788152,32.898866 35.6026999,32.9145109 35.628978,32.9251798 C35.6585274,32.9377001 35.6905436,32.9435982 35.7227022,32.942446 L35.7139155,32.942446 Z M35.7314888,32.6 C35.7588303,32.5986972 35.7857729,32.6068424 35.8076397,32.6230215 C35.8258287,32.6378118 35.8356431,32.6603118 35.8339996,32.6834532 C35.8348498,32.7027784 35.8274127,32.7215683 35.8134974,32.7352518 C35.7965211,32.7504017 35.7748645,32.7595209 35.751991,32.761151 L35.8369285,32.8561151 L35.7695642,32.8561151 L35.6904845,32.761151 L35.6641246,32.761151 L35.6641246,32.8561151 L35.6084758,32.8561151 L35.6084758,32.6028777 L35.7314888,32.6 Z M35.6670534,32.6489208 L35.6670534,32.7179856 L35.7314888,32.7179856 C35.7429549,32.7213444 35.7551692,32.7213444 35.7666354,32.7179856 C35.7708128,32.7098403 35.7708128,32.7002315 35.7666354,32.6920863 C35.7708128,32.683941 35.7708128,32.6743323 35.7666354,32.666187 C35.7551692,32.6628282 35.7429549,32.6628282 35.7314888,32.666187 L35.6670534,32.6489208 Z M32.4452851,31.4805755 C32.4723758,31.0289694 32.8619013,30.68147 33.3220134,30.6984381 C33.7821254,30.7154062 34.1440422,31.0906174 34.136601,31.5429481 C34.1291598,31.9952789 33.7550902,32.358802 33.2946604,32.361151 C33.060215,32.3640657 32.8351848,32.2706411 32.6739025,32.1034343 C32.5126201,31.9362276 32.4297444,31.7104358 32.4452851,31.4805755 L32.4452851,31.4805755 Z M11.875759,31.4805755 L11.875759,30.105036 L11.2665519,30.105036 L11.2665519,30.4388489 C11.0566694,30.1735108 10.7296812,30.0235829 10.3878879,30.0359712 C9.57909991,30.0359712 8.92344773,30.6801658 8.92344773,31.4748201 C8.92344773,32.2694744 9.57909991,32.913669 10.3878879,32.913669 C10.7296812,32.9260573 11.0566694,32.7761294 11.2665519,32.5107913 L11.2665519,32.8446043 L11.875759,32.8446043 L11.875759,31.4805755 Z M9.60880571,31.4805755 C9.63589639,31.0289694 10.0254219,30.68147 10.485534,30.6984381 C10.945646,30.7154062 11.3075628,31.0906174 11.3001216,31.5429481 C11.2926804,31.9952789 10.9186108,32.358802 10.458181,32.361151 C10.2227252,32.3656927 9.99612842,32.2729804 9.83354709,32.1055814 C9.67096576,31.9381824 9.58731191,31.7114507 9.60294795,31.4805755 L9.60880571,31.4805755 Z" id="Shape" fill="#FFFFFF" fill-rule="nonzero"></path>
                    <g id="_Group_" transform="translate(3.000000, 7.000000)">
                        <rect id="Rectangle" fill="#FF5F00" x="12.3940171" y="2.25821918" width="9.15384615" height="16.2850685"></rect>
                        <path d="M12.9752137,10.4021918 C12.9717912,7.22385394 14.445305,4.22058122 16.9709402,2.25821918 C12.6816485,-1.07875223 6.52205358,-0.592693485 2.82095323,3.37480638 C-0.880147111,7.34230625 -0.880147111,13.4592006 2.82095323,17.4267005 C6.52205358,21.3942003 12.6816485,21.8802591 16.9709402,18.5432877 C14.4461085,16.5815486 12.9726847,13.5795201 12.9752137,10.4021918 L12.9752137,10.4021918 Z" id="_Path_" fill="#EB001B"></path>
                        <path d="M33.8982906,10.4021918 C33.8982906,14.3672738 31.6111138,17.9842419 28.0083733,19.7169558 C24.4056329,21.4496697 20.119744,20.9939286 16.9709402,18.5432877 C19.4946702,16.5798831 20.9682049,13.5782538 20.9682049,10.4007534 C20.9682049,7.22325306 19.4946702,4.22162372 16.9709402,2.25821918 C20.119744,-0.192421799 24.4056329,-0.64816282 28.0083733,1.08455107 C31.6111138,2.81726497 33.8982906,6.43423304 33.8982906,10.3993151 L33.8982906,10.4021918 Z" id="Path" fill="#F79E1B"></path>
                        <path d="M32.9270255,17.4074283 L32.9270255,16.5847333 L33.082141,16.5847333 L33.082141,16.4145205 L32.6894017,16.4145205 L32.6894017,16.5847333 L32.8577185,16.5847333 L32.8577185,17.4074283 L32.9270255,17.4074283 Z M33.6894017,17.4074283 L33.6894017,16.4145205 L33.5705898,16.4145205 L33.431976,17.1237404 L33.2933621,16.4145205 L33.1877515,16.4145205 L33.1877515,17.4074283 L33.2735601,17.4074283 L33.2735601,16.6627475 L33.402273,17.3081376 L33.4913819,17.3081376 L33.6200948,16.6627475 L33.6200948,17.4145205 L33.6894017,17.4074283 Z" id="Shape" fill="#F79E1B" fill-rule="nonzero"></path>
                    </g>
                </g>
            </g>
        </g>
    </g>
</svg>